<svg id="SvgjsSvg1071" width="246.25" height="631.8124866485596" xmlns="http://www.w3.org/2000/svg" version="1.1" xmlns:xlink="http://www.w3.org/1999/xlink" xmlns:svgjs="http://svgjs.com/svgjs"><defs id="SvgjsDefs1072"><pattern patternUnits="userSpaceOnUse" id="pattern_mark_0" width="300" height="300"><text x="150" y="100" fill="rgba(229,229,229,0.8)" font-size="18" transform="rotate(-45, 150, 150)" style="dominant-baseline: middle; text-anchor: middle;"></text></pattern><pattern patternUnits="userSpaceOnUse" id="pattern_mark_1" width="300" height="300"><text x="150" y="200" fill="rgba(229,229,229,0.8)" font-size="18" transform="rotate(-45, 150, 150)" style="dominant-baseline: middle; text-anchor: middle;"></text></pattern><marker id="SvgjsMarker1122" markerWidth="13" markerHeight="9" refX="9.5" refY="4.5" viewBox="0 0 13 9" orient="auto" markerUnits="userSpaceOnUse" stroke-dasharray="0,0"><path id="SvgjsPath1123" d="M0,0 L13,4.5 L0,9 L0,0" fill="#323232" stroke="#323232" stroke-width="1"></path></marker><marker id="SvgjsMarker1126" markerWidth="13" markerHeight="9" refX="9.5" refY="4.5" viewBox="0 0 13 9" orient="auto" markerUnits="userSpaceOnUse" stroke-dasharray="0,0"><path id="SvgjsPath1127" d="M0,0 L13,4.5 L0,9 L0,0" fill="#323232" stroke="#323232" stroke-width="1"></path></marker><marker id="SvgjsMarker1130" markerWidth="13" markerHeight="9" refX="9.5" refY="4.5" viewBox="0 0 13 9" orient="auto" markerUnits="userSpaceOnUse" stroke-dasharray="0,0"><path id="SvgjsPath1131" d="M0,0 L13,4.5 L0,9 L0,0" fill="#323232" stroke="#323232" stroke-width="1"></path></marker><marker id="SvgjsMarker1134" markerWidth="13" markerHeight="9" refX="9.5" refY="4.5" viewBox="0 0 13 9" orient="auto" markerUnits="userSpaceOnUse" stroke-dasharray="0,0"><path id="SvgjsPath1135" d="M0,0 L13,4.5 L0,9 L0,0" fill="#323232" stroke="#323232" stroke-width="1"></path></marker></defs><rect id="svgbackgroundid" width="246.25" height="631.8124866485596" fill="transparent"></rect><rect id="SvgjsRect1074" width="246.25" height="631.8124866485596" fill="url(#pattern_mark_0)"></rect><rect id="SvgjsRect1075" width="246.25" height="631.8124866485596" fill="url(#pattern_mark_1)"></rect><g id="SvgjsG1076" transform="translate(25,24.999988794326782)"><path id="SvgjsPath1077" d="M 0 4Q 0 0 4 0L 192.4999771118164 0Q 196.4999771118164 0 196.4999771118164 4L 196.4999771118164 61Q 196.4999771118164 65 192.4999771118164 65L 4 65Q 0 65 0 61Z" stroke="rgba(33,41,48,1)" stroke-width="2" fill-opacity="1" fill="#ccffcc"></path><g id="SvgjsG1078"><text id="SvgjsText1079" font-family="微软雅黑" text-anchor="middle" font-size="20px" width="177px" fill="#323232" font-weight="400" align="middle" lineHeight="125%" anchor="middle" family="微软雅黑" size="20px" weight="400" font-style="" opacity="1" y="14.5" transform="rotate(0)"><tspan id="SvgjsTspan1080" dy="25" x="98.5"><tspan id="SvgjsTspan1081" style="text-decoration:;">开始事务</tspan></tspan></text></g></g><g id="SvgjsG1082" transform="translate(25,148.93748855590826)"><path id="SvgjsPath1083" d="M 0 4Q 0 0 4 0L 192.4999771118164 0Q 196.4999771118164 0 196.4999771118164 4L 196.4999771118164 61Q 196.4999771118164 65 192.4999771118164 65L 4 65Q 0 65 0 61Z" stroke="rgba(33,41,48,1)" stroke-width="2" fill-opacity="1" fill="#ccffcc"></path><g id="SvgjsG1084"><text id="SvgjsText1085" font-family="微软雅黑" text-anchor="middle" font-size="20px" width="177px" fill="#323232" font-weight="400" align="middle" lineHeight="125%" anchor="middle" family="微软雅黑" size="20px" weight="400" font-style="" opacity="1" y="14.5" transform="rotate(0)"><tspan id="SvgjsTspan1086" dy="25" x="98.5"><tspan id="SvgjsTspan1087" style="text-decoration:;">修改数据</tspan></tspan></text></g></g><g id="SvgjsG1088" transform="translate(59.4999885559082,255.9374885559082)"><path id="SvgjsPath1089" d="M 0 0L 120 0L 120 40L 0 40Z" stroke="none" fill="none"></path><g id="SvgjsG1090"><text id="SvgjsText1091" font-family="微软雅黑" text-anchor="middle" font-size="13px" width="120px" fill="#323232" font-weight="400" align="middle" lineHeight="125%" anchor="middle" family="微软雅黑" size="13px" weight="400" font-style="" opacity="1" y="9.375" transform="rotate(0)"><tspan id="SvgjsTspan1092" dy="16" x="60"><tspan id="SvgjsTspan1093" style="text-decoration:;">就绪</tspan></tspan></text></g></g><g id="SvgjsG1094" transform="translate(25,261.81248855590826)"><path id="SvgjsPath1095" d="M 0 4Q 0 0 4 0L 192.4999771118164 0Q 196.4999771118164 0 196.4999771118164 4L 196.4999771118164 61Q 196.4999771118164 65 192.4999771118164 65L 4 65Q 0 65 0 61Z" stroke="rgba(33,41,48,1)" stroke-width="2" fill-opacity="1" fill="#f19594"></path><g id="SvgjsG1096"><text id="SvgjsText1097" font-family="微软雅黑" text-anchor="middle" font-size="20px" width="177px" fill="#323232" font-weight="400" align="middle" lineHeight="125%" anchor="middle" family="微软雅黑" size="20px" weight="400" font-style="" opacity="1" y="2" transform="rotate(0)"><tspan id="SvgjsTspan1098" dy="25" x="98.5"><tspan id="SvgjsTspan1099" style="text-decoration:;">写入redo log</tspan></tspan><tspan id="SvgjsTspan1100" dy="25" x="98.5"><tspan id="SvgjsTspan1101" style="text-decoration:;">(prepare阶段)</tspan></tspan></text></g></g><g id="SvgjsG1102" transform="translate(25,486.8749883174896)"><path id="SvgjsPath1103" d="M 0 4Q 0 0 4 0L 192.4999771118164 0Q 196.4999771118164 0 196.4999771118164 4L 196.4999771118164 105.87500047683704Q 196.4999771118164 109.87500047683704 192.4999771118164 109.87500047683704L 4 109.87500047683704Q 0 109.87500047683704 0 105.87500047683704Z" stroke="rgba(33,41,48,1)" stroke-width="2" fill-opacity="1" fill="#f19594"></path><g id="SvgjsG1104"><text id="SvgjsText1105" font-family="微软雅黑" text-anchor="middle" font-size="20px" width="177px" fill="#323232" font-weight="400" align="middle" lineHeight="125%" anchor="middle" family="微软雅黑" size="20px" weight="400" font-style="" opacity="1" y="-0.5624997615814777" transform="rotate(0)"><tspan id="SvgjsTspan1106" dy="25" x="98.5"><tspan id="SvgjsTspan1107" style="text-decoration:;">提交事务</tspan></tspan><tspan id="SvgjsTspan1108" dy="25" x="98.5"><tspan id="SvgjsTspan1109" style="text-decoration:;fill: rgb(50, 50, 50);">redo log状态设置</tspan></tspan><tspan id="SvgjsTspan1110" dy="25" x="98.5"><tspan id="SvgjsTspan1111" style="text-decoration:;fill: rgb(50, 50, 50);">为commit</tspan></tspan><tspan id="SvgjsTspan1112" dy="25" x="98.5"><tspan id="SvgjsTspan1113" style="text-decoration:;">(commit阶段)</tspan></tspan></text></g></g><g id="SvgjsG1114" transform="translate(25,374.3437384366989)"><path id="SvgjsPath1115" d="M 0 4Q 0 0 4 0L 192.4999771118164 0Q 196.4999771118164 0 196.4999771118164 4L 196.4999771118164 61Q 196.4999771118164 65 192.4999771118164 65L 4 65Q 0 65 0 61Z" stroke="rgba(33,41,48,1)" stroke-width="2" fill-opacity="1" fill="#a6aef3"></path><g id="SvgjsG1116"><text id="SvgjsText1117" font-family="微软雅黑" text-anchor="middle" font-size="20px" width="177px" fill="#323232" font-weight="400" align="middle" lineHeight="125%" anchor="middle" family="微软雅黑" size="20px" weight="400" font-style="" opacity="1" y="14.5" transform="rotate(0)"><tspan id="SvgjsTspan1118" dy="25" x="98.5"><tspan id="SvgjsTspan1119" style="text-decoration:;fill: rgb(50, 50, 50);">写入bin log</tspan></tspan></text></g></g><g id="SvgjsG1120"><path id="SvgjsPath1121" d="M123.2499885559082 90.99998879432678L123.2499885559082 119.46873867511749L123.2499885559082 119.46873867511749L123.2499885559082 145.98748855590827" stroke="#323232" stroke-width="1.5" fill="none" marker-end="url(#SvgjsMarker1122)"></path></g><g id="SvgjsG1124"><path id="SvgjsPath1125" d="M123.2499885559082 214.93748855590826L123.2499885559082 237.87498855590826L123.2499885559082 237.87498855590826L123.2499885559082 258.86248855590827" stroke="#323232" stroke-width="1.5" fill="none" marker-end="url(#SvgjsMarker1126)"></path></g><g id="SvgjsG1128"><path id="SvgjsPath1129" d="M123.2499885559082 326.8124885559082L123.2499885559082 371.39373843669887" stroke="#323232" stroke-width="1.5" fill="none" marker-end="url(#SvgjsMarker1130)"></path></g><g id="SvgjsG1132"><path id="SvgjsPath1133" d="M123.2499885559082 440.3437384366989L123.2499885559082 483.9249883174896" stroke="#323232" stroke-width="1.5" fill="none" marker-end="url(#SvgjsMarker1134)"></path></g></svg>